<svg xmlns="http://www.w3.org/2000/svg" xmlns:xlink="http://www.w3.org/1999/xlink" width="500" zoomAndPan="magnify" viewBox="0 0 375 374.999991" height="500" preserveAspectRatio="xMidYMid meet" version="1.0"><defs><g/><clipPath id="2fe7c8ba3c"><path d="M 103.984375 205.625 L 214.234375 205.625 L 214.234375 233.375 L 103.984375 233.375 Z M 103.984375 205.625 " clip-rule="nonzero"/></clipPath><clipPath id="6d404ae0c3"><path d="M 218.769531 205.625 L 245.019531 205.625 L 245.019531 233.375 L 218.769531 233.375 Z M 218.769531 205.625 " clip-rule="nonzero"/></clipPath><clipPath id="fdf5bf1be1"><path d="M 195.800781 205.625 L 210.800781 205.625 L 210.800781 233.375 L 195.800781 233.375 Z M 195.800781 205.625 " clip-rule="nonzero"/></clipPath></defs><rect x="-37.5" width="450" fill="#ffffff" y="-37.499999" height="449.999989" fill-opacity="1"/><rect x="-37.5" width="450" fill="#ffffff" y="-37.499999" height="449.999989" fill-opacity="1"/><g fill="#ffffff" fill-opacity="1"><g transform="translate(76.422661, 192.624825)"><g><path d="M 12.28125 0.578125 C 10.71875 0.578125 9.15625 0.363281 7.59375 -0.0625 C 6.039062 -0.5 4.632812 -1.222656 3.375 -2.234375 C 2.125 -3.253906 1.171875 -4.648438 0.515625 -6.421875 C -0.128906 -8.203125 -0.34375 -10.414062 -0.125 -13.0625 L 7.859375 -15.015625 C 7.691406 -12.203125 8.148438 -10.195312 9.234375 -9 C 10.316406 -7.8125 11.59375 -7.21875 13.0625 -7.21875 C 14.582031 -7.21875 15.875 -7.640625 16.9375 -8.484375 C 18 -9.328125 18.613281 -10.703125 18.78125 -12.609375 C 18.957031 -13.992188 18.726562 -15.171875 18.09375 -16.140625 C 17.46875 -17.117188 16.613281 -18.007812 15.53125 -18.8125 C 14.445312 -19.613281 13.28125 -20.425781 12.03125 -21.25 C 10.769531 -22.070312 9.53125 -23.046875 8.3125 -24.171875 C 7.101562 -25.304688 6.207031 -26.695312 5.625 -28.34375 C 5.039062 -29.988281 5.007812 -31.976562 5.53125 -34.3125 C 6.257812 -37.695312 7.816406 -40.394531 10.203125 -42.40625 C 12.585938 -44.425781 15.878906 -45.4375 20.078125 -45.4375 C 21.472656 -45.4375 22.851562 -45.257812 24.21875 -44.90625 C 25.582031 -44.5625 26.835938 -43.96875 27.984375 -43.125 C 29.128906 -42.28125 30.035156 -41.140625 30.703125 -39.703125 C 31.378906 -38.273438 31.675781 -36.457031 31.59375 -34.25 L 24.25 -32.375 C 24.289062 -34.320312 23.875 -35.75 23 -36.65625 C 22.132812 -37.570312 21.007812 -38.050781 19.625 -38.09375 C 18.238281 -38.175781 17.054688 -37.816406 16.078125 -37.015625 C 15.109375 -36.210938 14.492188 -35.097656 14.234375 -33.671875 C 14.054688 -32.628906 14.207031 -31.71875 14.6875 -30.9375 C 15.164062 -30.15625 15.867188 -29.460938 16.796875 -28.859375 C 17.734375 -28.253906 18.742188 -27.601562 19.828125 -26.90625 C 20.953125 -26.257812 22.085938 -25.535156 23.234375 -24.734375 C 24.378906 -23.929688 25.375 -22.96875 26.21875 -21.84375 C 27.070312 -20.71875 27.671875 -19.351562 28.015625 -17.75 C 28.359375 -16.144531 28.289062 -14.238281 27.8125 -12.03125 C 26.988281 -8.082031 25.210938 -4.992188 22.484375 -2.765625 C 19.753906 -0.535156 16.351562 0.578125 12.28125 0.578125 Z M 12.28125 0.578125 "/></g></g></g><g fill="#ffffff" fill-opacity="1"><g transform="translate(106.31909, 192.624825)"><g><path d="M -0.328125 0 L 9.171875 -44.84375 L 22.421875 -44.84375 C 26.929688 -44.84375 30.210938 -43.457031 32.265625 -40.6875 C 34.328125 -37.914062 34.859375 -34.191406 33.859375 -29.515625 C 32.910156 -25.179688 30.863281 -21.84375 27.71875 -19.5 C 24.582031 -17.15625 20.820312 -15.984375 16.4375 -15.984375 L 12.546875 -15.984375 L 9.234375 0 Z M 14.109375 -23.015625 L 16.828125 -23.015625 C 18.828125 -23.015625 20.539062 -23.628906 21.96875 -24.859375 C 23.394531 -26.097656 24.367188 -27.929688 24.890625 -30.359375 C 25.328125 -32.390625 25.207031 -34.054688 24.53125 -35.359375 C 23.863281 -36.660156 22.597656 -37.3125 20.734375 -37.3125 L 17.09375 -37.3125 Z M 14.109375 -23.015625 "/></g></g></g><g fill="#ffffff" fill-opacity="1"><g transform="translate(138.230285, 192.624825)"><g><path d="M 14.5625 0.65625 C 9.1875 0.65625 5.507812 -1.300781 3.53125 -5.21875 C 1.5625 -9.144531 1.425781 -15.140625 3.125 -23.203125 C 4.769531 -30.921875 7.238281 -36.566406 10.53125 -40.140625 C 13.820312 -43.710938 17.984375 -45.5 23.015625 -45.5 C 28.554688 -45.5 32.34375 -43.535156 34.375 -39.609375 C 36.414062 -35.691406 36.59375 -29.703125 34.90625 -21.640625 C 33.257812 -13.972656 30.742188 -8.335938 27.359375 -4.734375 C 23.984375 -1.140625 19.71875 0.65625 14.5625 0.65625 Z M 15.59375 -7.609375 C 17.675781 -7.609375 19.601562 -8.832031 21.375 -11.28125 C 23.15625 -13.726562 24.632812 -17.703125 25.8125 -23.203125 C 26.9375 -28.441406 27.203125 -32.125 26.609375 -34.25 C 26.023438 -36.375 24.648438 -37.4375 22.484375 -37.4375 C 20.367188 -37.4375 18.421875 -36.203125 16.640625 -33.734375 C 14.859375 -31.265625 13.382812 -27.234375 12.21875 -21.640625 C 11.132812 -16.484375 10.894531 -12.851562 11.5 -10.75 C 12.113281 -8.65625 13.476562 -7.609375 15.59375 -7.609375 Z M 15.59375 -7.609375 "/></g></g></g><g fill="#ffffff" fill-opacity="1"><g transform="translate(173.781045, 192.624825)"><g><path d="M 22.421875 -44.84375 C 26.929688 -44.84375 30.210938 -43.457031 32.265625 -40.6875 C 34.328125 -37.914062 34.859375 -34.191406 33.859375 -29.515625 C 33.210938 -26.523438 32.019531 -24 30.28125 -21.9375 C 28.550781 -19.875 26.429688 -18.347656 23.921875 -17.359375 L 28.734375 0.0625 L 19.171875 0.0625 L 15.671875 -15.984375 L 12.546875 -15.984375 L 9.234375 0 L -0.328125 0 L 9.171875 -44.84375 Z M 24.890625 -30.546875 C 25.328125 -32.585938 25.207031 -34.222656 24.53125 -35.453125 C 23.863281 -36.691406 22.597656 -37.3125 20.734375 -37.3125 L 17.09375 -37.3125 L 14.109375 -23.015625 L 16.828125 -23.015625 C 18.828125 -23.015625 20.539062 -23.660156 21.96875 -24.953125 C 23.394531 -26.253906 24.367188 -28.117188 24.890625 -30.546875 Z M 24.890625 -30.546875 "/></g></g></g><g fill="#ffffff" fill-opacity="1"><g transform="translate(206.992083, 192.624825)"><g><path d="M 5.921875 0 L 13.78125 -36.796875 L 4.9375 -36.796875 L 6.625 -44.84375 L 33.796875 -44.84375 L 32.109375 -36.796875 L 23.265625 -36.796875 L 15.46875 0 Z M 5.921875 0 "/></g></g></g><g fill="#ffffff" fill-opacity="1"><g transform="translate(235.458688, 192.624825)"><g><path d="M 12.28125 0.578125 C 10.71875 0.578125 9.15625 0.363281 7.59375 -0.0625 C 6.039062 -0.5 4.632812 -1.222656 3.375 -2.234375 C 2.125 -3.253906 1.171875 -4.648438 0.515625 -6.421875 C -0.128906 -8.203125 -0.34375 -10.414062 -0.125 -13.0625 L 7.859375 -15.015625 C 7.691406 -12.203125 8.148438 -10.195312 9.234375 -9 C 10.316406 -7.8125 11.59375 -7.21875 13.0625 -7.21875 C 14.582031 -7.21875 15.875 -7.640625 16.9375 -8.484375 C 18 -9.328125 18.613281 -10.703125 18.78125 -12.609375 C 18.957031 -13.992188 18.726562 -15.171875 18.09375 -16.140625 C 17.46875 -17.117188 16.613281 -18.007812 15.53125 -18.8125 C 14.445312 -19.613281 13.28125 -20.425781 12.03125 -21.25 C 10.769531 -22.070312 9.53125 -23.046875 8.3125 -24.171875 C 7.101562 -25.304688 6.207031 -26.695312 5.625 -28.34375 C 5.039062 -29.988281 5.007812 -31.976562 5.53125 -34.3125 C 6.257812 -37.695312 7.816406 -40.394531 10.203125 -42.40625 C 12.585938 -44.425781 15.878906 -45.4375 20.078125 -45.4375 C 21.472656 -45.4375 22.851562 -45.257812 24.21875 -44.90625 C 25.582031 -44.5625 26.835938 -43.96875 27.984375 -43.125 C 29.128906 -42.28125 30.035156 -41.140625 30.703125 -39.703125 C 31.378906 -38.273438 31.675781 -36.457031 31.59375 -34.25 L 24.25 -32.375 C 24.289062 -34.320312 23.875 -35.75 23 -36.65625 C 22.132812 -37.570312 21.007812 -38.050781 19.625 -38.09375 C 18.238281 -38.175781 17.054688 -37.816406 16.078125 -37.015625 C 15.109375 -36.210938 14.492188 -35.097656 14.234375 -33.671875 C 14.054688 -32.628906 14.207031 -31.71875 14.6875 -30.9375 C 15.164062 -30.15625 15.867188 -29.460938 16.796875 -28.859375 C 17.734375 -28.253906 18.742188 -27.601562 19.828125 -26.90625 C 20.953125 -26.257812 22.085938 -25.535156 23.234375 -24.734375 C 24.378906 -23.929688 25.375 -22.96875 26.21875 -21.84375 C 27.070312 -20.71875 27.671875 -19.351562 28.015625 -17.75 C 28.359375 -16.144531 28.289062 -14.238281 27.8125 -12.03125 C 26.988281 -8.082031 25.210938 -4.992188 22.484375 -2.765625 C 19.753906 -0.535156 16.351562 0.578125 12.28125 0.578125 Z M 12.28125 0.578125 "/></g></g></g><g fill="#ffffff" fill-opacity="1"><g transform="translate(265.355117, 192.624825)"><g><path d="M 8.390625 0 L 11.953125 -16.25 L 6.4375 -44.84375 L 16.4375 -44.84375 L 17.546875 -33.34375 L 18 -23.71875 L 22.5625 -33.34375 L 28.59375 -44.84375 L 39 -44.84375 L 21.3125 -16.25 L 17.75 0 Z M 8.390625 0 "/></g></g></g><g clip-path="url(#2fe7c8ba3c)"><path fill="#ffffff" d="M 195.5625 205.625 L 165.757812 233.371094 L 184.429688 233.371094 L 214.234375 205.625 Z M 164.675781 205.625 L 134.871094 233.371094 L 153.542969 233.371094 L 183.347656 205.625 Z M 133.789062 205.625 L 103.984375 233.371094 L 122.65625 233.371094 L 152.460938 205.625 Z M 133.789062 205.625 " fill-opacity="1" fill-rule="nonzero"/></g><g clip-path="url(#6d404ae0c3)"><path fill="#ffffff" d="M 231.957031 233.507812 C 224.707031 233.507812 218.769531 227.574219 218.769531 220.324219 L 218.769531 218.828125 C 218.769531 211.578125 224.707031 205.640625 231.957031 205.640625 C 239.207031 205.640625 245.144531 211.578125 245.144531 218.828125 L 245.144531 220.324219 C 245.148438 227.574219 239.214844 233.507812 231.957031 233.507812 Z M 231.957031 233.507812 " fill-opacity="1" fill-rule="nonzero"/></g><g clip-path="url(#fdf5bf1be1)"><path fill="#ffffff" d="M 287.378906 205.625 L 257.574219 233.371094 L 276.246094 233.371094 L 306.050781 205.625 Z M 256.492188 205.625 L 226.6875 233.371094 L 245.359375 233.371094 L 275.164062 205.625 Z M 225.605469 205.625 L 195.800781 233.371094 L 214.472656 233.371094 L 244.277344 205.625 Z M 225.605469 205.625 " fill-opacity="1" fill-rule="nonzero"/></g></svg>